<svg xmlns="http://www.w3.org/2000/svg" viewBox="0 0 314.77 314.77"><defs><style>.cls-1{fill:#83b25f;}.cls-2{fill:#fff;}</style></defs><g id="レイヤー_2" data-name="レイヤー 2"><g id="gabage"><circle class="cls-1" cx="157.38" cy="157.38" r="157.38"/><path class="cls-2" d="M95.44,111.42H220.1a0,0,0,0,1,0,0V224.66a26.4,26.4,0,0,1-26.4,26.4H121.83a26.4,26.4,0,0,1-26.4-26.4V111.42A0,0,0,0,1,95.44,111.42Z"/><rect class="cls-1" x="151.24" y="129.98" width="12.29" height="97.17" rx="5.51"/><rect class="cls-2" x="89.51" y="78.62" width="136.51" height="24"/><rect class="cls-2" x="147.94" y="62.2" width="18.88" height="27.05" rx="4.42"/><rect class="cls-1" x="184.22" y="129.98" width="12.29" height="97.17" rx="5.51"/><rect class="cls-1" x="118.26" y="129.98" width="12.29" height="97.17" rx="5.51"/></g></g></svg>