<svg xmlns="http://www.w3.org/2000/svg" viewBox="0 0 285.38 285.38"><defs><style>.cls-1{fill:#d2dacc;}.cls-2{fill:#fff;}</style></defs><g id="レイヤー_2" data-name="レイヤー 2"><g id="レイヤー_1-2" data-name="レイヤー 1"><circle class="cls-1" cx="142.69" cy="142.69" r="142.69"/><path class="cls-2" d="M231.23,125H192.31a24.81,24.81,0,0,0-6.43.85,43.6,43.6,0,0,1-18.32,29.54v5.93a32.83,32.83,0,0,1,27.29,32.36v3h60V148.64A23.64,23.64,0,0,0,231.23,125Z"/><path class="cls-2" d="M54.41,125H93.32a24.75,24.75,0,0,1,6.43.85,43.67,43.67,0,0,0,18.32,29.54v5.93a32.84,32.84,0,0,0-27.29,32.36v3h-60V148.64A23.65,23.65,0,0,1,54.41,125Z"/><path class="cls-2" d="M123.79,169.85H162.7a23.64,23.64,0,0,1,23.64,23.64v48.05a0,0,0,0,1,0,0H99a0,0,0,0,1,0,0V194.61A24.75,24.75,0,0,1,123.79,169.85Z"/><circle class="cls-2" cx="142.69" cy="119.53" r="30.85"/><circle class="cls-2" cx="211.22" cy="79.61" r="30.85"/><circle class="cls-2" cx="80.99" cy="79.61" r="30.85"/></g></g></svg>