<svg xmlns="http://www.w3.org/2000/svg" viewBox="0 0 322.75 304.13"><defs><style>.cls-1{fill:#83b25f;}</style></defs><g id="レイヤー_2" data-name="レイヤー 2"><g id="glass"><path class="cls-1" d="M316.59,254.71,281.73,269,257,208.4a38.18,38.18,0,0,0,14-46.08L214.9,25.06,144.34,53.9l56.12,137.31a38.07,38.07,0,0,0,42.25,23l24.74,60.55L232.59,289l6.17,15.09,84-34.33ZM185.46,135.54,153.23,56.67l57.27-23.4,32.23,78.87,9.62,23.4Z"/><path class="cls-1" d="M68.22,0,34.29,144.41a38.07,38.07,0,0,0,21.06,43.26l-15,63.68L3.73,242.73,0,258.6l88.33,20.76,3.73-15.87L55.4,254.87l15-63.68a38.17,38.17,0,0,0,38.14-29.42L142.42,17.44ZM51,104.51l3.32-14.16h0L73.85,7.41l60.23,14.15-19.49,83Z"/></g></g></svg>